<svg xmlns="http://www.w3.org/2000/svg" width="500" height="500" viewBox="157 178 170 170">
<g>
<path d="M 163.50 322.82 C162.40,322.21 161.38,321.61 161.23,321.50 C161.08,321.38 161.23,320.56 161.57,319.68 C162.13,318.23 162.41,318.22 164.53,319.61 C167.71,321.69 171.50,321.09 171.50,318.50 C171.50,317.06 170.39,316.15 167.50,315.20 C165.30,314.48 163.11,313.50 162.62,313.02 C161.10,311.50 161.68,306.71 163.57,305.33 C165.97,303.57 171.14,303.64 173.56,305.47 C175.70,307.09 175.33,307.27 169.53,307.41 C166.64,307.47 165.46,307.96 165.21,309.19 C164.96,310.44 165.95,311.18 168.94,311.98 C173.97,313.34 176.46,316.66 175.10,320.23 C173.67,324.01 167.92,325.29 163.50,322.82 ZM 181.22 322.44 C179.50,321.24 179.00,319.90 179.00,316.50 C179.00,313.10 179.50,311.76 181.22,310.56 C183.78,308.77 187.29,308.55 190.02,310.01 C193.72,311.99 193.44,320.67 189.60,323.23 C187.74,324.48 183.56,324.08 181.22,322.44 ZM 189.01 318.50 C190.17,315.32 188.43,312.00 185.60,312.00 C182.77,312.00 181.47,314.74 182.44,318.64 C182.94,320.61 183.61,321.06 185.68,320.81 C187.18,320.63 188.59,319.66 189.01,318.50 ZM 198.57 322.43 C195.38,319.24 195.41,313.73 198.64,310.51 C200.58,308.56 206.39,308.56 208.00,310.50 C209.35,312.13 209.20,312.20 204.00,312.38 C200.60,312.50 200.50,312.62 200.50,316.50 C200.50,319.96 200.83,320.55 202.89,320.84 C204.20,321.02 205.64,320.58 206.10,319.85 C206.77,318.75 207.14,318.75 208.21,319.83 C209.27,320.90 209.15,321.39 207.56,322.57 C205.00,324.46 200.53,324.39 198.57,322.43 ZM 212.00 316.50 C212.00,309.67 212.18,309.00 214.00,309.00 C215.82,309.00 216.00,309.67 216.00,316.50 C216.00,323.33 215.82,324.00 214.00,324.00 C212.18,324.00 212.00,323.33 212.00,316.50 ZM 221.17 323.13 C220.41,322.65 219.98,321.03 220.17,319.39 C220.45,316.98 221.12,316.35 224.25,315.57 C229.26,314.34 229.49,311.50 224.52,312.30 C222.60,312.61 220.79,312.47 220.49,311.98 C219.70,310.71 223.37,309.00 226.90,309.00 C230.53,309.00 232.00,311.23 232.00,316.73 C232.00,318.86 232.53,321.13 233.17,321.77 C234.81,323.41 231.45,324.62 229.58,323.06 C228.62,322.27 227.97,322.23 227.53,322.95 C226.76,324.20 223.03,324.31 221.17,323.13 ZM 226.42 321.39 C228.73,320.51 228.44,317.00 226.06,317.00 C223.76,317.00 222.60,318.53 223.38,320.55 C224.01,322.19 224.21,322.24 226.42,321.39 ZM 237.04 322.07 C236.47,321.00 236.00,316.28 236.00,311.57 C236.00,303.67 236.16,303.00 238.00,303.00 C239.85,303.00 240.00,303.67 240.00,312.00 C240.00,317.33 240.41,321.00 241.00,321.00 C241.55,321.00 242.00,321.67 242.00,322.50 C242.00,324.67 238.25,324.34 237.04,322.07 ZM 252.00 316.50 C252.00,310.50 252.30,309.00 253.50,309.00 C254.32,309.00 255.00,309.54 255.00,310.20 C255.00,311.13 255.27,311.13 256.20,310.20 C257.81,308.59 261.07,308.65 260.45,310.27 C260.18,310.97 258.96,311.98 257.73,312.52 C255.90,313.33 255.45,314.44 255.20,318.75 C254.98,322.53 254.49,324.00 253.45,324.00 C252.31,324.00 252.00,322.38 252.00,316.50 ZM 265.00 322.00 C260.47,317.47 263.73,309.00 270.00,309.00 C274.08,309.00 277.00,312.13 277.00,316.50 C277.00,320.87 274.08,324.00 270.00,324.00 C268.33,324.00 266.11,323.11 265.00,322.00 ZM 273.07 318.87 C274.59,316.03 272.79,312.00 270.00,312.00 C267.21,312.00 265.41,316.03 266.93,318.87 C267.56,320.04 268.94,321.00 270.00,321.00 C271.06,321.00 272.44,320.04 273.07,318.87 ZM 282.20 322.80 C280.38,320.98 280.60,309.00 282.45,309.00 C283.51,309.00 283.98,310.53 284.20,314.75 C284.48,320.14 284.66,320.50 287.00,320.50 C289.34,320.50 289.52,320.14 289.80,314.75 C290.06,309.82 290.38,309.00 292.05,309.00 C293.81,309.00 294.00,309.73 294.00,316.50 C294.00,322.30 293.68,324.00 292.58,324.00 C291.80,324.00 290.96,323.44 290.71,322.75 C290.34,321.75 289.98,321.75 288.92,322.75 C287.24,324.34 283.76,324.36 282.20,322.80 ZM 300.04 322.07 C299.47,321.00 299.00,318.30 299.00,316.07 C299.00,313.83 298.55,312.00 298.00,312.00 C297.45,312.00 297.00,311.33 297.00,310.50 C297.00,309.67 297.45,309.00 298.00,309.00 C298.55,309.00 299.00,308.33 299.00,307.50 C299.00,306.67 299.89,306.00 301.00,306.00 C302.11,306.00 303.00,306.67 303.00,307.50 C303.00,308.33 303.89,309.00 305.00,309.00 C306.11,309.00 307.00,309.67 307.00,310.50 C307.00,311.33 306.11,312.00 305.00,312.00 C303.30,312.00 303.00,312.67 303.00,316.50 C303.00,320.33 303.30,321.00 305.00,321.00 C306.11,321.00 307.00,321.67 307.00,322.50 C307.00,324.81 301.31,324.45 300.04,322.07 ZM 311.91 322.13 C309.01,319.78 308.77,314.02 311.45,311.05 C315.32,306.78 323.00,309.56 323.00,315.22 C323.00,316.69 322.12,317.00 317.93,317.00 C313.63,317.00 312.90,317.27 313.19,318.75 C313.58,320.82 317.54,321.63 319.47,320.03 C321.33,318.48 322.58,320.59 320.96,322.54 C319.28,324.57 314.67,324.36 311.91,322.13 ZM 320.00 314.57 C320.00,314.34 319.29,313.44 318.43,312.57 C317.25,311.39 316.39,311.26 314.93,312.04 C311.93,313.64 312.65,315.00 316.50,315.00 C318.42,315.00 320.00,314.81 320.00,314.57 ZM 212.53 306.05 C211.65,304.63 212.77,303.00 214.63,303.00 C215.51,303.00 216.01,303.70 215.82,304.67 C215.43,306.68 213.44,307.52 212.53,306.05 ZM 207.77 298.51 C204.62,297.71 199.77,295.90 196.99,294.49 C192.12,292.03 184.00,284.74 184.00,282.84 C184.00,281.48 193.33,270.15 194.50,270.09 C195.05,270.06 197.41,272.01 199.74,274.42 C205.23,280.11 211.58,283.12 219.42,283.75 C230.95,284.67 238.00,280.05 238.00,271.56 C238.00,263.47 234.43,261.10 215.32,256.53 C201.46,253.22 194.78,249.45 190.54,242.58 C187.73,238.04 187.50,236.95 187.50,228.50 C187.50,220.05 187.73,218.96 190.54,214.42 C194.20,208.49 201.74,203.61 209.87,201.92 C217.54,200.33 234.25,201.23 240.00,203.53 C245.74,205.84 253.00,210.74 253.00,212.30 C253.00,213.97 245.06,225.00 243.85,225.00 C243.31,225.00 241.40,223.88 239.61,222.52 C234.85,218.89 228.60,217.00 221.34,217.00 C210.77,217.00 205.00,220.74 205.00,227.59 C205.00,230.87 207.83,235.30 211.02,237.01 C212.05,237.56 218.19,239.16 224.67,240.56 C243.34,244.59 249.98,248.30 254.40,257.17 C257.99,264.38 258.09,276.11 254.63,283.56 C251.83,289.57 245.53,295.26 239.13,297.56 C232.72,299.86 215.22,300.39 207.77,298.51 ZM 274.00 262.50 L 274.00 226.00 L 282.50 226.00 L 291.00 226.00 L 291.00 231.50 C291.00,234.52 291.39,237.00 291.87,237.00 C292.34,237.00 293.92,235.21 295.36,233.03 C296.81,230.84 299.46,228.27 301.25,227.32 C305.00,225.32 316.26,224.86 318.04,226.64 C318.89,227.49 318.88,229.68 317.96,235.32 L 316.75 242.86 L 310.12 242.36 C301.99,241.74 297.60,243.77 294.55,249.59 C292.69,253.14 292.47,255.61 292.18,276.25 L 291.86 299.00 L 282.93 299.00 L 274.00 299.00 L 274.00 262.50 ZM 267.68 213.35 C267.31,212.97 267.00,210.04 267.00,206.83 L 267.00 201.00 L 293.05 201.00 L 319.10 201.00 L 318.80 207.25 L 318.50 213.50 L 293.43 213.77 C279.65,213.91 268.06,213.73 267.68,213.35 Z" fill="rgba(0,0,0,1)"/>
</g>
</svg>